<mxfile host="65bd71144e">
    <diagram id="C5RBs43oDa-KdzZeNtuy" name="Page-1">
        <mxGraphModel dx="478" dy="602" grid="1" gridSize="10" guides="1" tooltips="1" connect="1" arrows="1" fold="1" page="1" pageScale="1" pageWidth="827" pageHeight="1169" math="0" shadow="0">
            <root>
                <mxCell id="WIyWlLk6GJQsqaUBKTNV-0"/>
                <mxCell id="WIyWlLk6GJQsqaUBKTNV-1" parent="WIyWlLk6GJQsqaUBKTNV-0"/>
                <mxCell id="sUFSaurnRxQrxvBgYilj-0" value="CalcStack&amp;lt;T&amp;gt;" style="swimlane;fontStyle=1;align=center;verticalAlign=top;childLayout=stackLayout;horizontal=1;startSize=26;horizontalStack=0;resizeParent=1;resizeParentMax=0;resizeLast=0;collapsible=1;marginBottom=0;whiteSpace=wrap;html=1;" parent="WIyWlLk6GJQsqaUBKTNV-1" vertex="1">
                    <mxGeometry x="995" y="531" width="160" height="104" as="geometry"/>
                </mxCell>
                <mxCell id="sUFSaurnRxQrxvBgYilj-2" value="" style="line;strokeWidth=1;fillColor=none;align=left;verticalAlign=middle;spacingTop=-1;spacingLeft=3;spacingRight=3;rotatable=0;labelPosition=right;points=[];portConstraint=eastwest;strokeColor=inherit;" parent="sUFSaurnRxQrxvBgYilj-0" vertex="1">
                    <mxGeometry y="26" width="160" height="8" as="geometry"/>
                </mxCell>
                <mxCell id="sUFSaurnRxQrxvBgYilj-3" value="+ drop(): &lt;span style=&quot;white-space: pre;&quot;&gt;&#9;&lt;/span&gt;&lt;span style=&quot;white-space: pre;&quot;&gt;&#9;&lt;/span&gt;T&lt;br&gt;+ dup(): &lt;span style=&quot;white-space: pre;&quot;&gt;&#9;&lt;/span&gt;&lt;span style=&quot;white-space: pre;&quot;&gt;&#9;&lt;/span&gt;boolean&lt;br&gt;+ swap(): &lt;span style=&quot;white-space: pre;&quot;&gt;&#9;&lt;/span&gt;boolean&lt;br&gt;+ over(): &lt;span style=&quot;white-space: pre;&quot;&gt;&#9;&lt;/span&gt;&lt;span style=&quot;white-space: pre;&quot;&gt;&#9;&lt;/span&gt;boolean" style="text;strokeColor=none;fillColor=none;align=left;verticalAlign=top;spacingLeft=4;spacingRight=4;overflow=hidden;rotatable=0;points=[[0,0.5],[1,0.5]];portConstraint=eastwest;whiteSpace=wrap;html=1;" parent="sUFSaurnRxQrxvBgYilj-0" vertex="1">
                    <mxGeometry y="34" width="160" height="70" as="geometry"/>
                </mxCell>
                <mxCell id="sUFSaurnRxQrxvBgYilj-4" value="NumeroComplesso" style="swimlane;fontStyle=1;align=center;verticalAlign=top;childLayout=stackLayout;horizontal=1;startSize=26;horizontalStack=0;resizeParent=1;resizeParentMax=0;resizeLast=0;collapsible=1;marginBottom=0;whiteSpace=wrap;html=1;" parent="WIyWlLk6GJQsqaUBKTNV-1" vertex="1">
                    <mxGeometry x="591" y="90" width="340" height="220" as="geometry"/>
                </mxCell>
                <mxCell id="sUFSaurnRxQrxvBgYilj-5" value="- realPart: &lt;span style=&quot;white-space: pre;&quot;&gt;&#9;&lt;/span&gt;double&lt;br&gt;- complexPart: double" style="text;strokeColor=none;fillColor=none;align=left;verticalAlign=top;spacingLeft=4;spacingRight=4;overflow=hidden;rotatable=0;points=[[0,0.5],[1,0.5]];portConstraint=eastwest;whiteSpace=wrap;html=1;" parent="sUFSaurnRxQrxvBgYilj-4" vertex="1">
                    <mxGeometry y="26" width="340" height="44" as="geometry"/>
                </mxCell>
                <mxCell id="sUFSaurnRxQrxvBgYilj-6" value="" style="line;strokeWidth=1;fillColor=none;align=left;verticalAlign=middle;spacingTop=-1;spacingLeft=3;spacingRight=3;rotatable=0;labelPosition=right;points=[];portConstraint=eastwest;strokeColor=inherit;" parent="sUFSaurnRxQrxvBgYilj-4" vertex="1">
                    <mxGeometry y="70" width="340" height="8" as="geometry"/>
                </mxCell>
                <mxCell id="sUFSaurnRxQrxvBgYilj-7" value="+ NumeroComplesso(double)&lt;br&gt;+ NumeroComplesso(double,double)&lt;br&gt;+ NumeroComplesso(NumeroComplesso)&lt;br&gt;+ getRealPart(): &lt;span style=&quot;&quot;&gt;&lt;span style=&quot;&quot;&gt;&amp;nbsp;&amp;nbsp;&amp;nbsp;&amp;nbsp;&lt;/span&gt;&lt;/span&gt;&lt;span style=&quot;&quot;&gt;&lt;span style=&quot;&quot;&gt;&amp;nbsp;&amp;nbsp;&amp;nbsp;&amp;nbsp;&lt;/span&gt;&lt;span style=&quot;&quot;&gt;&lt;span style=&quot;&quot;&gt;&amp;nbsp;&amp;nbsp;&amp;nbsp;&amp;nbsp;&lt;/span&gt;&lt;/span&gt;&lt;span style=&quot;&quot;&gt;&lt;span style=&quot;&quot;&gt;&amp;nbsp;&amp;nbsp;&amp;nbsp;&amp;nbsp;&lt;/span&gt;&lt;/span&gt;&lt;span style=&quot;&quot;&gt;&lt;span style=&quot;&quot;&gt;&amp;nbsp;&amp;nbsp;&amp;nbsp;&amp;nbsp;&lt;span style=&quot;&quot;&gt;&lt;span style=&quot;white-space: pre;&quot;&gt;&amp;nbsp;&amp;nbsp;&amp;nbsp;&amp;nbsp;&lt;/span&gt;&lt;span style=&quot;&quot;&gt;&lt;span style=&quot;white-space: pre;&quot;&gt;&amp;nbsp;&amp;nbsp;&amp;nbsp;&amp;nbsp;&lt;/span&gt;&lt;/span&gt;&lt;span style=&quot;&quot;&gt;&lt;span style=&quot;white-space: pre;&quot;&gt;&amp;nbsp;&amp;nbsp;&amp;nbsp;&amp;nbsp;&lt;/span&gt;&lt;/span&gt;&lt;span style=&quot;&quot;&gt;&lt;span style=&quot;white-space: pre;&quot;&gt;&amp;nbsp;&amp;nbsp;&amp;nbsp;&amp;nbsp;&lt;span style=&quot;white-space: pre;&quot;&gt;&#9;&lt;/span&gt;&lt;span style=&quot;white-space: pre;&quot;&gt;&#9;&lt;/span&gt;&lt;/span&gt;&lt;/span&gt;&lt;/span&gt;&lt;/span&gt;&lt;/span&gt;&lt;/span&gt;double&lt;br&gt;+ getComplexPart(): &lt;span style=&quot;&quot;&gt;&lt;span style=&quot;&quot;&gt;&amp;nbsp;&amp;nbsp;&amp;nbsp;&amp;nbsp;&lt;/span&gt;&lt;span style=&quot;&quot;&gt;&lt;span style=&quot;&quot;&gt;&amp;nbsp;&amp;nbsp;&amp;nbsp;&amp;nbsp;&lt;/span&gt;&lt;/span&gt;&lt;span style=&quot;&quot;&gt;&lt;span style=&quot;&quot;&gt;&amp;nbsp;&amp;nbsp;&amp;nbsp;&amp;nbsp;&lt;/span&gt;&lt;/span&gt;&lt;span style=&quot;&quot;&gt;&lt;span style=&quot;&quot;&gt;&amp;nbsp;&amp;nbsp;&amp;nbsp;&lt;span style=&quot;&quot;&gt;&lt;span style=&quot;white-space: pre;&quot;&gt;&amp;nbsp;&amp;nbsp;&amp;nbsp;&amp;nbsp;&lt;/span&gt;&lt;/span&gt;&lt;span style=&quot;&quot;&gt;&lt;span style=&quot;white-space: pre;&quot;&gt;&amp;nbsp;&amp;nbsp;&amp;nbsp;&amp;nbsp;&lt;/span&gt;&lt;/span&gt;&lt;span style=&quot;&quot;&gt;&lt;span style=&quot;white-space: pre;&quot;&gt;&amp;nbsp;&amp;nbsp;&amp;nbsp;&amp;nbsp;&lt;span style=&quot;white-space: pre;&quot;&gt;&#9;&lt;span style=&quot;white-space: pre;&quot;&gt;&#9;&lt;/span&gt;&lt;/span&gt;&lt;/span&gt;&lt;/span&gt;&lt;/span&gt;&lt;/span&gt;&lt;/span&gt;double&lt;br&gt;+ getModule():&lt;span style=&quot;&quot;&gt;&lt;span style=&quot;&quot;&gt;&amp;nbsp;&amp;nbsp;&amp;nbsp;&amp;nbsp;&lt;/span&gt;&lt;/span&gt;&lt;span style=&quot;&quot;&gt;&lt;span style=&quot;&quot;&gt;&amp;nbsp;&amp;nbsp;&amp;nbsp;&amp;nbsp;&lt;/span&gt;&lt;/span&gt;&lt;span style=&quot;&quot;&gt;&lt;span style=&quot;&quot;&gt;&amp;nbsp;&amp;nbsp;&amp;nbsp;&amp;nbsp;&lt;/span&gt;&lt;span style=&quot;&quot;&gt;&lt;span style=&quot;&quot;&gt;&amp;nbsp;&amp;nbsp;&amp;nbsp;&amp;nbsp;&lt;/span&gt;&lt;/span&gt;&lt;span style=&quot;&quot;&gt;&lt;span style=&quot;&quot;&gt;&amp;nbsp;&amp;nbsp;&amp;nbsp;&amp;nbsp;&lt;/span&gt;&lt;/span&gt;&lt;span style=&quot;&quot;&gt;&lt;span style=&quot;&quot;&gt;&amp;nbsp;&amp;nbsp;&amp;nbsp;&amp;nbsp;&lt;span style=&quot;&quot;&gt;&lt;span style=&quot;white-space: pre;&quot;&gt;&amp;nbsp;&amp;nbsp;&amp;nbsp;&amp;nbsp;&lt;/span&gt;&lt;span style=&quot;&quot;&gt;&lt;span style=&quot;white-space: pre;&quot;&gt;&amp;nbsp;&amp;nbsp;&amp;nbsp;&amp;nbsp;&lt;/span&gt;&lt;/span&gt;&lt;span style=&quot;&quot;&gt;&lt;span style=&quot;white-space: pre;&quot;&gt;&amp;nbsp;&amp;nbsp;&amp;nbsp;&amp;nbsp;&lt;/span&gt;&lt;/span&gt;&lt;span style=&quot;&quot;&gt;&lt;span style=&quot;white-space: pre;&quot;&gt;&amp;nbsp;&amp;nbsp;&amp;nbsp;&amp;nbsp;&lt;span style=&quot;white-space: pre;&quot;&gt;&#9;&lt;span style=&quot;white-space: pre;&quot;&gt;&#9;&lt;/span&gt;&lt;/span&gt;&lt;/span&gt;&lt;/span&gt;&lt;/span&gt;&lt;/span&gt;&lt;/span&gt;&lt;/span&gt;double&lt;br&gt;+ getAngle():&lt;span style=&quot;&quot;&gt;&lt;span style=&quot;&quot;&gt;&amp;nbsp;&amp;nbsp;&amp;nbsp;&amp;nbsp;&lt;/span&gt;&lt;/span&gt;&lt;span style=&quot;&quot;&gt;&lt;span style=&quot;&quot;&gt;&amp;nbsp;&amp;nbsp;&amp;nbsp;&amp;nbsp;&lt;/span&gt;&lt;/span&gt;&lt;span style=&quot;&quot;&gt;&lt;span style=&quot;&quot;&gt;&amp;nbsp;&amp;nbsp;&amp;nbsp;&amp;nbsp;&lt;/span&gt;&lt;span style=&quot;&quot;&gt;&lt;span style=&quot;&quot;&gt;&amp;nbsp;&amp;nbsp;&amp;nbsp;&amp;nbsp;&lt;/span&gt;&lt;/span&gt;&lt;span style=&quot;&quot;&gt;&lt;span style=&quot;&quot;&gt;&amp;nbsp;&amp;nbsp;&amp;nbsp;&amp;nbsp;&lt;/span&gt;&lt;/span&gt;&lt;span style=&quot;&quot;&gt;&lt;span style=&quot;&quot;&gt;&amp;nbsp;&amp;nbsp;&amp;nbsp;&amp;nbsp;&lt;span style=&quot;&quot;&gt;&lt;span style=&quot;white-space: pre;&quot;&gt;&amp;nbsp;&amp;nbsp;&amp;nbsp;&amp;nbsp;&lt;/span&gt;&lt;span style=&quot;&quot;&gt;&lt;span style=&quot;white-space: pre;&quot;&gt;&amp;nbsp;&amp;nbsp;&amp;nbsp;&amp;nbsp;&lt;/span&gt;&lt;/span&gt;&lt;span style=&quot;&quot;&gt;&lt;span style=&quot;white-space: pre;&quot;&gt;&amp;nbsp;&amp;nbsp;&amp;nbsp;&amp;nbsp;&lt;/span&gt;&lt;/span&gt;&lt;span style=&quot;&quot;&gt;&lt;span style=&quot;white-space: pre;&quot;&gt;&amp;nbsp;&amp;nbsp;&amp;nbsp;&amp;nbsp;&lt;span style=&quot;white-space: pre;&quot;&gt;&#9;&lt;span style=&quot;white-space: pre;&quot;&gt;&#9;&lt;/span&gt;&lt;/span&gt;&lt;/span&gt;&lt;/span&gt;&lt;/span&gt;&lt;/span&gt;&lt;/span&gt;&lt;/span&gt;double&lt;br&gt;+ toString():&lt;span style=&quot;&quot;&gt;&lt;span style=&quot;&quot;&gt;&amp;nbsp;&amp;nbsp;&amp;nbsp;&amp;nbsp;&lt;/span&gt;&lt;/span&gt;&lt;span style=&quot;&quot;&gt;&lt;span style=&quot;&quot;&gt;&amp;nbsp;&amp;nbsp;&amp;nbsp;&amp;nbsp;&lt;/span&gt;&lt;/span&gt;&lt;span style=&quot;&quot;&gt;&lt;span style=&quot;&quot;&gt;&amp;nbsp;&amp;nbsp;&amp;nbsp;&amp;nbsp;&lt;/span&gt;&lt;span style=&quot;&quot;&gt;&lt;span style=&quot;&quot;&gt;&amp;nbsp;&amp;nbsp;&amp;nbsp;&amp;nbsp;&lt;/span&gt;&lt;/span&gt;&lt;span style=&quot;&quot;&gt;&lt;span style=&quot;&quot;&gt;&amp;nbsp;&amp;nbsp;&amp;nbsp;&amp;nbsp;&lt;/span&gt;&lt;/span&gt;&lt;span style=&quot;&quot;&gt;&lt;span style=&quot;&quot;&gt;&amp;nbsp;&amp;nbsp;&amp;nbsp;&amp;nbsp;&lt;span style=&quot;&quot;&gt;&lt;span style=&quot;white-space: pre;&quot;&gt;&amp;nbsp;&amp;nbsp;&amp;nbsp;&amp;nbsp;&lt;/span&gt;&lt;span style=&quot;&quot;&gt;&lt;span style=&quot;white-space: pre;&quot;&gt;&amp;nbsp;&amp;nbsp;&amp;nbsp;&amp;nbsp;&lt;/span&gt;&lt;/span&gt;&lt;span style=&quot;&quot;&gt;&lt;span style=&quot;white-space: pre;&quot;&gt;&amp;nbsp;&amp;nbsp;&amp;nbsp;&amp;nbsp;&lt;/span&gt;&lt;/span&gt;&lt;span style=&quot;&quot;&gt;&lt;span style=&quot;white-space: pre;&quot;&gt;&amp;nbsp;&amp;nbsp;&amp;nbsp;&amp;nbsp;&lt;span style=&quot;white-space: pre;&quot;&gt;&#9;&lt;span style=&quot;white-space: pre;&quot;&gt;&#9;&lt;/span&gt;&lt;/span&gt;&lt;/span&gt;&lt;/span&gt;&lt;/span&gt;&lt;/span&gt;&lt;/span&gt;&lt;/span&gt;String" style="text;strokeColor=none;fillColor=none;align=left;verticalAlign=top;spacingLeft=4;spacingRight=4;overflow=hidden;rotatable=0;points=[[0,0.5],[1,0.5]];portConstraint=eastwest;whiteSpace=wrap;html=1;" parent="sUFSaurnRxQrxvBgYilj-4" vertex="1">
                    <mxGeometry y="78" width="340" height="142" as="geometry"/>
                </mxCell>
                <mxCell id="sUFSaurnRxQrxvBgYilj-8" value="Calcolatore" style="swimlane;fontStyle=1;align=center;verticalAlign=top;childLayout=stackLayout;horizontal=1;startSize=26;horizontalStack=0;resizeParent=1;resizeParentMax=0;resizeLast=0;collapsible=1;marginBottom=0;whiteSpace=wrap;html=1;" parent="WIyWlLk6GJQsqaUBKTNV-1" vertex="1">
                    <mxGeometry x="100" y="518" width="420" height="130" as="geometry"/>
                </mxCell>
                <mxCell id="sUFSaurnRxQrxvBgYilj-10" value="" style="line;strokeWidth=1;fillColor=none;align=left;verticalAlign=middle;spacingTop=-1;spacingLeft=3;spacingRight=3;rotatable=0;labelPosition=right;points=[];portConstraint=eastwest;strokeColor=inherit;" parent="sUFSaurnRxQrxvBgYilj-8" vertex="1">
                    <mxGeometry y="26" width="420" height="8" as="geometry"/>
                </mxCell>
                <mxCell id="sUFSaurnRxQrxvBgYilj-11" value="+ add(NumeroComplesso,NumeroComplesso): &lt;span style=&quot;&quot;&gt;&amp;nbsp;&amp;nbsp;&amp;nbsp;&amp;nbsp;&lt;span style=&quot;&quot;&gt;&lt;span style=&quot;white-space: pre;&quot;&gt;&amp;nbsp;&amp;nbsp;&amp;nbsp;&amp;nbsp;&lt;/span&gt;&lt;/span&gt;&lt;/span&gt;NumeroComplesso&lt;br&gt;+ subtract(NumeroComplesso,NumeroComplesso):&lt;span style=&quot;&quot;&gt;&amp;nbsp;&amp;nbsp;&amp;nbsp;&amp;nbsp;&lt;span style=&quot;&quot;&gt;&lt;span style=&quot;&quot;&gt;&amp;nbsp;&amp;nbsp;&lt;/span&gt;&lt;/span&gt;&lt;/span&gt;NumeroComplesso&lt;br&gt;+ multiply(NumeroComplesso,NumeroComplesso):&lt;span style=&quot;&quot;&gt;&amp;nbsp;&amp;nbsp;&amp;nbsp;&amp;nbsp;&lt;span style=&quot;&quot;&gt;&lt;span style=&quot;white-space: pre;&quot;&gt;&amp;nbsp;&amp;nbsp;&amp;nbsp;&amp;nbsp;&lt;/span&gt;&lt;/span&gt;&lt;/span&gt;NumeroComplesso&lt;br&gt;+ divide(NumeroComplesso,NumeroComplesso):&lt;span style=&quot;&quot;&gt;&amp;nbsp;&amp;nbsp;&amp;nbsp;&amp;nbsp;&lt;span style=&quot;&quot;&gt;&lt;span style=&quot;white-space: pre;&quot;&gt;&amp;nbsp;&amp;nbsp;&amp;nbsp;&amp;nbsp;&lt;/span&gt;&lt;/span&gt;&lt;/span&gt;NumeroComplesso&lt;br&gt;+ invertSign(NumeroComplesso):&lt;span style=&quot;&quot;&gt;&amp;nbsp;&amp;nbsp;&amp;nbsp;&amp;nbsp;&lt;span style=&quot;&quot;&gt;&lt;span style=&quot;white-space: pre;&quot;&gt;&amp;nbsp;&amp;nbsp;&amp;nbsp;&amp;nbsp;&lt;/span&gt;&lt;/span&gt;&lt;span style=&quot;&quot;&gt;&lt;span style=&quot;white-space: pre;&quot;&gt;&amp;nbsp;&amp;nbsp;&amp;nbsp;&amp;nbsp;&lt;/span&gt;&lt;/span&gt;&lt;span style=&quot;&quot;&gt;&lt;span style=&quot;white-space: pre;&quot;&gt;&amp;nbsp;&amp;nbsp;&amp;nbsp;&amp;nbsp;&lt;/span&gt;&lt;/span&gt;&lt;span style=&quot;&quot;&gt;&lt;span style=&quot;white-space: pre;&quot;&gt;&amp;nbsp;&amp;nbsp;&amp;nbsp;&amp;nbsp;&lt;/span&gt;&lt;/span&gt;&lt;/span&gt;NumeroComplesso&lt;br&gt;+ sqrt(NumeroComplesso):&lt;span style=&quot;&quot;&gt;&amp;nbsp;&amp;nbsp;&amp;nbsp;&amp;nbsp;&lt;span style=&quot;&quot;&gt;&lt;span style=&quot;white-space: pre;&quot;&gt;&amp;nbsp;&amp;nbsp;&amp;nbsp;&amp;nbsp;&lt;/span&gt;&lt;/span&gt;&lt;span style=&quot;&quot;&gt;&lt;span style=&quot;white-space: pre;&quot;&gt;&amp;nbsp;&amp;nbsp;&amp;nbsp;&amp;nbsp;&lt;/span&gt;&lt;/span&gt;&lt;span style=&quot;&quot;&gt;&lt;span style=&quot;white-space: pre;&quot;&gt;&amp;nbsp;&amp;nbsp;&amp;nbsp;&amp;nbsp;&lt;/span&gt;&lt;/span&gt;&lt;span style=&quot;&quot;&gt;&lt;span style=&quot;white-space: pre;&quot;&gt;&amp;nbsp;&amp;nbsp;&amp;nbsp;&amp;nbsp;&lt;/span&gt;&lt;/span&gt;&lt;span style=&quot;&quot;&gt;&lt;span style=&quot;white-space: pre;&quot;&gt;&amp;nbsp;&amp;nbsp;&amp;nbsp;&amp;nbsp;&lt;/span&gt;&lt;/span&gt;&lt;span style=&quot;&quot;&gt;&lt;span style=&quot;white-space: pre;&quot;&gt;&amp;nbsp;&amp;nbsp;&amp;nbsp;&amp;nbsp;&lt;/span&gt;&lt;/span&gt;&lt;/span&gt;NumeroComplesso" style="text;strokeColor=none;fillColor=none;align=left;verticalAlign=top;spacingLeft=4;spacingRight=4;overflow=hidden;rotatable=0;points=[[0,0.5],[1,0.5]];portConstraint=eastwest;whiteSpace=wrap;html=1;" parent="sUFSaurnRxQrxvBgYilj-8" vertex="1">
                    <mxGeometry y="34" width="420" height="96" as="geometry"/>
                </mxCell>
                <mxCell id="sUFSaurnRxQrxvBgYilj-16" value="stack" style="endArrow=block;endFill=1;html=1;edgeStyle=orthogonalEdgeStyle;align=left;verticalAlign=top;rounded=0;" parent="WIyWlLk6GJQsqaUBKTNV-1" source="lXXEIrz5YFjps7V0Bn83-0" target="sUFSaurnRxQrxvBgYilj-0" edge="1">
                    <mxGeometry x="-0.8705" relative="1" as="geometry">
                        <mxPoint x="160" y="412.5" as="sourcePoint"/>
                        <mxPoint x="320" y="412.5" as="targetPoint"/>
                        <mxPoint as="offset"/>
                    </mxGeometry>
                </mxCell>
                <mxCell id="sUFSaurnRxQrxvBgYilj-17" value="1" style="edgeLabel;resizable=0;html=1;align=left;verticalAlign=bottom;" parent="sUFSaurnRxQrxvBgYilj-16" connectable="0" vertex="1">
                    <mxGeometry x="-1" relative="1" as="geometry"/>
                </mxCell>
                <mxCell id="sUFSaurnRxQrxvBgYilj-18" value="Use" style="endArrow=open;endSize=12;dashed=1;html=1;rounded=0;" parent="WIyWlLk6GJQsqaUBKTNV-1" source="sUFSaurnRxQrxvBgYilj-8" target="sUFSaurnRxQrxvBgYilj-4" edge="1">
                    <mxGeometry width="160" relative="1" as="geometry">
                        <mxPoint x="300" y="350" as="sourcePoint"/>
                        <mxPoint x="460" y="350" as="targetPoint"/>
                    </mxGeometry>
                </mxCell>
                <mxCell id="sUFSaurnRxQrxvBgYilj-25" value="calc" style="endArrow=block;endFill=1;html=1;edgeStyle=orthogonalEdgeStyle;align=left;verticalAlign=top;rounded=0;" parent="WIyWlLk6GJQsqaUBKTNV-1" source="lXXEIrz5YFjps7V0Bn83-0" target="sUFSaurnRxQrxvBgYilj-8" edge="1">
                    <mxGeometry x="-0.4" relative="1" as="geometry">
                        <mxPoint x="340" y="350" as="sourcePoint"/>
                        <mxPoint x="500" y="350" as="targetPoint"/>
                        <mxPoint as="offset"/>
                    </mxGeometry>
                </mxCell>
                <mxCell id="sUFSaurnRxQrxvBgYilj-26" value="1" style="edgeLabel;resizable=0;html=1;align=left;verticalAlign=bottom;" parent="sUFSaurnRxQrxvBgYilj-25" connectable="0" vertex="1">
                    <mxGeometry x="-1" relative="1" as="geometry">
                        <mxPoint x="-20" as="offset"/>
                    </mxGeometry>
                </mxCell>
                <mxCell id="sUFSaurnRxQrxvBgYilj-27" value="controller" style="endArrow=block;endFill=1;html=1;edgeStyle=orthogonalEdgeStyle;align=left;verticalAlign=top;rounded=0;" parent="WIyWlLk6GJQsqaUBKTNV-1" source="z6b44kUmdWg1kvKyMiqo-13" target="lXXEIrz5YFjps7V0Bn83-0" edge="1">
                    <mxGeometry x="0.2" y="1" relative="1" as="geometry">
                        <mxPoint x="590" y="340" as="sourcePoint"/>
                        <mxPoint x="750" y="340" as="targetPoint"/>
                        <mxPoint as="offset"/>
                        <Array as="points">
                            <mxPoint x="761" y="880"/>
                            <mxPoint x="761" y="880"/>
                        </Array>
                    </mxGeometry>
                </mxCell>
                <mxCell id="sUFSaurnRxQrxvBgYilj-28" value="1" style="edgeLabel;resizable=0;html=1;align=left;verticalAlign=bottom;" parent="sUFSaurnRxQrxvBgYilj-27" connectable="0" vertex="1">
                    <mxGeometry x="-1" relative="1" as="geometry"/>
                </mxCell>
                <mxCell id="sUFSaurnRxQrxvBgYilj-39" value="Variabili" style="endArrow=block;endFill=1;html=1;edgeStyle=orthogonalEdgeStyle;align=left;verticalAlign=top;rounded=0;" parent="WIyWlLk6GJQsqaUBKTNV-1" source="lXXEIrz5YFjps7V0Bn83-0" target="sUFSaurnRxQrxvBgYilj-4" edge="1">
                    <mxGeometry x="-0.1765" y="-9" relative="1" as="geometry">
                        <mxPoint x="180" y="260" as="sourcePoint"/>
                        <mxPoint x="340" y="260" as="targetPoint"/>
                        <mxPoint as="offset"/>
                    </mxGeometry>
                </mxCell>
                <mxCell id="sUFSaurnRxQrxvBgYilj-40" value="0..25" style="edgeLabel;resizable=0;html=1;align=left;verticalAlign=bottom;" parent="sUFSaurnRxQrxvBgYilj-39" connectable="0" vertex="1">
                    <mxGeometry x="-1" relative="1" as="geometry"/>
                </mxCell>
                <mxCell id="10mGrHmq5y-HNPK-57N2-17" style="edgeStyle=orthogonalEdgeStyle;rounded=0;orthogonalLoop=1;jettySize=auto;html=1;" parent="WIyWlLk6GJQsqaUBKTNV-1" source="10mGrHmq5y-HNPK-57N2-0" target="z6b44kUmdWg1kvKyMiqo-13" edge="1">
                    <mxGeometry relative="1" as="geometry"/>
                </mxCell>
                <mxCell id="10mGrHmq5y-HNPK-57N2-0" value="InputView" style="swimlane;fontStyle=1;align=center;verticalAlign=top;childLayout=stackLayout;horizontal=1;startSize=26;horizontalStack=0;resizeParent=1;resizeParentMax=0;resizeLast=0;collapsible=1;marginBottom=0;whiteSpace=wrap;html=1;" parent="WIyWlLk6GJQsqaUBKTNV-1" vertex="1">
                    <mxGeometry x="915" y="875" width="80" height="60" as="geometry"/>
                </mxCell>
                <mxCell id="10mGrHmq5y-HNPK-57N2-2" value="" style="line;strokeWidth=1;fillColor=none;align=left;verticalAlign=middle;spacingTop=-1;spacingLeft=3;spacingRight=3;rotatable=0;labelPosition=right;points=[];portConstraint=eastwest;strokeColor=inherit;" parent="10mGrHmq5y-HNPK-57N2-0" vertex="1">
                    <mxGeometry y="26" width="80" height="8" as="geometry"/>
                </mxCell>
                <mxCell id="10mGrHmq5y-HNPK-57N2-3" value="+ getInput()" style="text;strokeColor=none;fillColor=none;align=left;verticalAlign=top;spacingLeft=4;spacingRight=4;overflow=hidden;rotatable=0;points=[[0,0.5],[1,0.5]];portConstraint=eastwest;whiteSpace=wrap;html=1;" parent="10mGrHmq5y-HNPK-57N2-0" vertex="1">
                    <mxGeometry y="34" width="80" height="26" as="geometry"/>
                </mxCell>
                <mxCell id="10mGrHmq5y-HNPK-57N2-18" style="edgeStyle=orthogonalEdgeStyle;rounded=0;orthogonalLoop=1;jettySize=auto;html=1;" parent="WIyWlLk6GJQsqaUBKTNV-1" source="10mGrHmq5y-HNPK-57N2-8" target="z6b44kUmdWg1kvKyMiqo-13" edge="1">
                    <mxGeometry relative="1" as="geometry"/>
                </mxCell>
                <mxCell id="10mGrHmq5y-HNPK-57N2-8" value="InfoView" style="swimlane;fontStyle=1;align=center;verticalAlign=top;childLayout=stackLayout;horizontal=1;startSize=26;horizontalStack=0;resizeParent=1;resizeParentMax=0;resizeLast=0;collapsible=1;marginBottom=0;whiteSpace=wrap;html=1;" parent="WIyWlLk6GJQsqaUBKTNV-1" vertex="1">
                    <mxGeometry x="650" y="1050" width="70" height="34" as="geometry"/>
                </mxCell>
                <mxCell id="10mGrHmq5y-HNPK-57N2-10" value="" style="line;strokeWidth=1;fillColor=none;align=left;verticalAlign=middle;spacingTop=-1;spacingLeft=3;spacingRight=3;rotatable=0;labelPosition=right;points=[];portConstraint=eastwest;strokeColor=inherit;" parent="10mGrHmq5y-HNPK-57N2-8" vertex="1">
                    <mxGeometry y="26" width="70" height="8" as="geometry"/>
                </mxCell>
                <mxCell id="10mGrHmq5y-HNPK-57N2-19" style="edgeStyle=orthogonalEdgeStyle;rounded=0;orthogonalLoop=1;jettySize=auto;html=1;" parent="WIyWlLk6GJQsqaUBKTNV-1" source="z6b44kUmdWg1kvKyMiqo-20" target="z6b44kUmdWg1kvKyMiqo-13" edge="1">
                    <mxGeometry relative="1" as="geometry">
                        <mxPoint x="860" y="1050" as="sourcePoint"/>
                    </mxGeometry>
                </mxCell>
                <mxCell id="10mGrHmq5y-HNPK-57N2-16" style="edgeStyle=orthogonalEdgeStyle;rounded=0;orthogonalLoop=1;jettySize=auto;html=1;" parent="WIyWlLk6GJQsqaUBKTNV-1" source="z6b44kUmdWg1kvKyMiqo-9" target="z6b44kUmdWg1kvKyMiqo-13" edge="1">
                    <mxGeometry relative="1" as="geometry"/>
                </mxCell>
                <mxCell id="mW0cXDERrKOJe9Ps7cA_-8" value="&lt;p style=&quot;margin:0px;margin-top:4px;text-align:center;&quot;&gt;&lt;i&gt;&amp;lt;&amp;lt;Enumerator&amp;gt;&amp;gt;&lt;/i&gt;&lt;br&gt;&lt;b&gt;Error&lt;/b&gt;&lt;/p&gt;&lt;hr size=&quot;1&quot;&gt;&lt;p style=&quot;margin:0px;margin-left:4px;&quot;&gt;InputError&lt;/p&gt;&lt;p style=&quot;margin:0px;margin-left:4px;&quot;&gt;NoValueInStackToOperate&lt;/p&gt;&lt;p style=&quot;margin:0px;margin-left:4px;&quot;&gt;NoValueInVarToOperate&lt;/p&gt;&lt;p style=&quot;margin:0px;margin-left:4px;&quot;&gt;CantDivideByZero&lt;/p&gt;" style="verticalAlign=top;align=left;overflow=fill;fontSize=12;fontFamily=Helvetica;html=1;whiteSpace=wrap;" parent="WIyWlLk6GJQsqaUBKTNV-1" vertex="1">
                    <mxGeometry x="995" y="690" width="150" height="110" as="geometry"/>
                </mxCell>
                <mxCell id="mW0cXDERrKOJe9Ps7cA_-9" value="ErrorMessageView" style="swimlane;fontStyle=1;align=center;verticalAlign=top;childLayout=stackLayout;horizontal=1;startSize=26;horizontalStack=0;resizeParent=1;resizeParentMax=0;resizeLast=0;collapsible=1;marginBottom=0;whiteSpace=wrap;html=1;" parent="WIyWlLk6GJQsqaUBKTNV-1" vertex="1">
                    <mxGeometry x="461" y="1024" width="160" height="34" as="geometry"/>
                </mxCell>
                <mxCell id="mW0cXDERrKOJe9Ps7cA_-11" value="" style="line;strokeWidth=1;fillColor=none;align=left;verticalAlign=middle;spacingTop=-1;spacingLeft=3;spacingRight=3;rotatable=0;labelPosition=right;points=[];portConstraint=eastwest;strokeColor=inherit;" parent="mW0cXDERrKOJe9Ps7cA_-9" vertex="1">
                    <mxGeometry y="26" width="160" height="8" as="geometry"/>
                </mxCell>
                <mxCell id="mW0cXDERrKOJe9Ps7cA_-13" value="Use" style="endArrow=open;endSize=12;dashed=1;html=1;rounded=0;" parent="WIyWlLk6GJQsqaUBKTNV-1" source="z6b44kUmdWg1kvKyMiqo-13" target="mW0cXDERrKOJe9Ps7cA_-9" edge="1">
                    <mxGeometry width="160" relative="1" as="geometry">
                        <mxPoint x="775" y="919.76" as="sourcePoint"/>
                        <mxPoint x="935" y="919.76" as="targetPoint"/>
                    </mxGeometry>
                </mxCell>
                <mxCell id="mW0cXDERrKOJe9Ps7cA_-14" value="Use" style="endArrow=open;endSize=12;dashed=1;html=1;rounded=0;" parent="WIyWlLk6GJQsqaUBKTNV-1" source="mW0cXDERrKOJe9Ps7cA_-8" target="lXXEIrz5YFjps7V0Bn83-0" edge="1">
                    <mxGeometry width="160" relative="1" as="geometry">
                        <mxPoint x="810" y="740" as="sourcePoint"/>
                        <mxPoint x="970" y="740" as="targetPoint"/>
                    </mxGeometry>
                </mxCell>
                <mxCell id="lXXEIrz5YFjps7V0Bn83-0" value="Controllar" style="swimlane;fontStyle=1;align=center;verticalAlign=top;childLayout=stackLayout;horizontal=1;startSize=26;horizontalStack=0;resizeParent=1;resizeParentMax=0;resizeLast=0;collapsible=1;marginBottom=0;whiteSpace=wrap;html=1;" parent="WIyWlLk6GJQsqaUBKTNV-1" vertex="1">
                    <mxGeometry x="621" y="418" width="280" height="330" as="geometry"/>
                </mxCell>
                <mxCell id="lXXEIrz5YFjps7V0Bn83-1" value="- ArrayList&amp;lt;NumeroComplesso&amp;gt; variables" style="text;strokeColor=none;fillColor=none;align=left;verticalAlign=top;spacingLeft=4;spacingRight=4;overflow=hidden;rotatable=0;points=[[0,0.5],[1,0.5]];portConstraint=eastwest;whiteSpace=wrap;html=1;" parent="lXXEIrz5YFjps7V0Bn83-0" vertex="1">
                    <mxGeometry y="26" width="280" height="26" as="geometry"/>
                </mxCell>
                <mxCell id="lXXEIrz5YFjps7V0Bn83-2" value="" style="line;strokeWidth=1;fillColor=none;align=left;verticalAlign=middle;spacingTop=-1;spacingLeft=3;spacingRight=3;rotatable=0;labelPosition=right;points=[];portConstraint=eastwest;strokeColor=inherit;" parent="lXXEIrz5YFjps7V0Bn83-0" vertex="1">
                    <mxGeometry y="52" width="280" height="8" as="geometry"/>
                </mxCell>
                <mxCell id="lXXEIrz5YFjps7V0Bn83-3" value="-isNumeric(string) : bool&lt;br&gt;-isCalculatorOpValid(string) : bool&lt;br&gt;-isStackOpValid(string) : bool&lt;br&gt;-isVarOpValid(string) : bool&lt;br&gt;- getVar(int) : NumeriComplesso&lt;br&gt;- setVar(int,NumeriComplesso)&lt;br&gt;+ addVar(int)&lt;br&gt;+ substractVar(int)&lt;br&gt;+ varToStack(int)&amp;nbsp;&lt;br&gt;+ stackToVar(int)&lt;br&gt;+ addStack()&lt;br&gt;+ subtractStack()&lt;br&gt;+ MultiplyStack()&lt;br&gt;+ DivideStack()&lt;br&gt;+ sqrtStack()&lt;br&gt;+ invertSign()&lt;br&gt;+ inputHandler(String)" style="text;strokeColor=none;fillColor=none;align=left;verticalAlign=top;spacingLeft=4;spacingRight=4;overflow=hidden;rotatable=0;points=[[0,0.5],[1,0.5]];portConstraint=eastwest;whiteSpace=wrap;html=1;" parent="lXXEIrz5YFjps7V0Bn83-0" vertex="1">
                    <mxGeometry y="60" width="280" height="270" as="geometry"/>
                </mxCell>
                <mxCell id="NQVYG9_aH5k32oK6pHg_-1" style="edgeStyle=orthogonalEdgeStyle;rounded=0;orthogonalLoop=1;jettySize=auto;html=1;endArrow=block;endFill=0;" parent="WIyWlLk6GJQsqaUBKTNV-1" source="sUFSaurnRxQrxvBgYilj-0" target="NQVYG9_aH5k32oK6pHg_-0" edge="1">
                    <mxGeometry relative="1" as="geometry"/>
                </mxCell>
                <mxCell id="NQVYG9_aH5k32oK6pHg_-0" value="Stack&lt;T&gt;" style="rounded=0;whiteSpace=wrap;html=1;" parent="WIyWlLk6GJQsqaUBKTNV-1" vertex="1">
                    <mxGeometry x="1045" y="430" width="60" height="24" as="geometry"/>
                </mxCell>
                <mxCell id="z6b44kUmdWg1kvKyMiqo-0" value="varView" style="swimlane;fontStyle=1;align=center;verticalAlign=top;childLayout=stackLayout;horizontal=1;startSize=26;horizontalStack=0;resizeParent=1;resizeParentMax=0;resizeLast=0;collapsible=1;marginBottom=0;whiteSpace=wrap;html=1;" parent="WIyWlLk6GJQsqaUBKTNV-1" vertex="1">
                    <mxGeometry x="1070" y="1050" width="100" height="60" as="geometry"/>
                </mxCell>
                <mxCell id="z6b44kUmdWg1kvKyMiqo-1" value="" style="line;strokeWidth=1;fillColor=none;align=left;verticalAlign=middle;spacingTop=-1;spacingLeft=3;spacingRight=3;rotatable=0;labelPosition=right;points=[];portConstraint=eastwest;strokeColor=inherit;" parent="z6b44kUmdWg1kvKyMiqo-0" vertex="1">
                    <mxGeometry y="26" width="100" height="8" as="geometry"/>
                </mxCell>
                <mxCell id="z6b44kUmdWg1kvKyMiqo-2" value="+ updateVIew()" style="text;strokeColor=none;fillColor=none;align=left;verticalAlign=top;spacingLeft=4;spacingRight=4;overflow=hidden;rotatable=0;points=[[0,0.5],[1,0.5]];portConstraint=eastwest;whiteSpace=wrap;html=1;" parent="z6b44kUmdWg1kvKyMiqo-0" vertex="1">
                    <mxGeometry y="34" width="100" height="26" as="geometry"/>
                </mxCell>
                <mxCell id="z6b44kUmdWg1kvKyMiqo-4" value="StackNumberView" style="swimlane;fontStyle=1;align=center;verticalAlign=top;childLayout=stackLayout;horizontal=1;startSize=26;horizontalStack=0;resizeParent=1;resizeParentMax=0;resizeLast=0;collapsible=1;marginBottom=0;whiteSpace=wrap;html=1;" parent="WIyWlLk6GJQsqaUBKTNV-1" vertex="1">
                    <mxGeometry x="294" y="888" width="120" height="34" as="geometry"/>
                </mxCell>
                <mxCell id="z6b44kUmdWg1kvKyMiqo-5" value="" style="line;strokeWidth=1;fillColor=none;align=left;verticalAlign=middle;spacingTop=-1;spacingLeft=3;spacingRight=3;rotatable=0;labelPosition=right;points=[];portConstraint=eastwest;strokeColor=inherit;" parent="z6b44kUmdWg1kvKyMiqo-4" vertex="1">
                    <mxGeometry y="26" width="120" height="8" as="geometry"/>
                </mxCell>
                <mxCell id="z6b44kUmdWg1kvKyMiqo-8" style="edgeStyle=orthogonalEdgeStyle;rounded=0;orthogonalLoop=1;jettySize=auto;html=1;" parent="WIyWlLk6GJQsqaUBKTNV-1" source="z6b44kUmdWg1kvKyMiqo-4" target="z6b44kUmdWg1kvKyMiqo-9" edge="1">
                    <mxGeometry relative="1" as="geometry">
                        <mxPoint x="450" y="810" as="sourcePoint"/>
                        <mxPoint x="506" y="810" as="targetPoint"/>
                    </mxGeometry>
                </mxCell>
                <mxCell id="z6b44kUmdWg1kvKyMiqo-9" value="StackView" style="swimlane;fontStyle=1;align=center;verticalAlign=top;childLayout=stackLayout;horizontal=1;startSize=26;horizontalStack=0;resizeParent=1;resizeParentMax=0;resizeLast=0;collapsible=1;marginBottom=0;whiteSpace=wrap;html=1;" parent="WIyWlLk6GJQsqaUBKTNV-1" vertex="1">
                    <mxGeometry x="461" y="835" width="130" height="140" as="geometry"/>
                </mxCell>
                <mxCell id="z6b44kUmdWg1kvKyMiqo-10" value="- nNumbers:int&lt;br&gt;- gl:GridLayout" style="text;strokeColor=none;fillColor=none;align=left;verticalAlign=top;spacingLeft=4;spacingRight=4;overflow=hidden;rotatable=0;points=[[0,0.5],[1,0.5]];portConstraint=eastwest;whiteSpace=wrap;html=1;" parent="z6b44kUmdWg1kvKyMiqo-9" vertex="1">
                    <mxGeometry y="26" width="130" height="34" as="geometry"/>
                </mxCell>
                <mxCell id="z6b44kUmdWg1kvKyMiqo-11" value="" style="line;strokeWidth=1;fillColor=none;align=left;verticalAlign=middle;spacingTop=-1;spacingLeft=3;spacingRight=3;rotatable=0;labelPosition=right;points=[];portConstraint=eastwest;strokeColor=inherit;" parent="z6b44kUmdWg1kvKyMiqo-9" vertex="1">
                    <mxGeometry y="60" width="130" height="8" as="geometry"/>
                </mxCell>
                <mxCell id="z6b44kUmdWg1kvKyMiqo-12" value="+ StackView()&lt;br&gt;+ addNum(String)&lt;br&gt;+ removeNum()&lt;br&gt;+ clean()" style="text;strokeColor=none;fillColor=none;align=left;verticalAlign=top;spacingLeft=4;spacingRight=4;overflow=hidden;rotatable=0;points=[[0,0.5],[1,0.5]];portConstraint=eastwest;whiteSpace=wrap;html=1;" parent="z6b44kUmdWg1kvKyMiqo-9" vertex="1">
                    <mxGeometry y="68" width="130" height="72" as="geometry"/>
                </mxCell>
                <mxCell id="z6b44kUmdWg1kvKyMiqo-13" value="MainView" style="swimlane;fontStyle=1;align=center;verticalAlign=top;childLayout=stackLayout;horizontal=1;startSize=26;horizontalStack=0;resizeParent=1;resizeParentMax=0;resizeLast=0;collapsible=1;marginBottom=0;whiteSpace=wrap;html=1;" parent="WIyWlLk6GJQsqaUBKTNV-1" vertex="1">
                    <mxGeometry x="670" y="800" width="170" height="210" as="geometry"/>
                </mxCell>
                <mxCell id="z6b44kUmdWg1kvKyMiqo-14" value="- controller:Controller" style="text;strokeColor=none;fillColor=none;align=left;verticalAlign=top;spacingLeft=4;spacingRight=4;overflow=hidden;rotatable=0;points=[[0,0.5],[1,0.5]];portConstraint=eastwest;whiteSpace=wrap;html=1;" parent="z6b44kUmdWg1kvKyMiqo-13" vertex="1">
                    <mxGeometry y="26" width="170" height="26" as="geometry"/>
                </mxCell>
                <mxCell id="z6b44kUmdWg1kvKyMiqo-15" value="" style="line;strokeWidth=1;fillColor=none;align=left;verticalAlign=middle;spacingTop=-1;spacingLeft=3;spacingRight=3;rotatable=0;labelPosition=right;points=[];portConstraint=eastwest;strokeColor=inherit;" parent="z6b44kUmdWg1kvKyMiqo-13" vertex="1">
                    <mxGeometry y="52" width="170" height="8" as="geometry"/>
                </mxCell>
                <mxCell id="z6b44kUmdWg1kvKyMiqo-16" value="+ MainView()&lt;br&gt;+ setController(Controller)&lt;br&gt;+ recibeInput(String)&lt;br&gt;+ addToStack(String)&lt;br&gt;+ removeFromStack()&lt;br&gt;+ cleanStack()&lt;br&gt;+ setVar(int, String)&lt;br&gt;+ setVar(char,String)&lt;br&gt;+ showErrorMessage(String)&lt;br&gt;- showView()" style="text;strokeColor=none;fillColor=none;align=left;verticalAlign=top;spacingLeft=4;spacingRight=4;overflow=hidden;rotatable=0;points=[[0,0.5],[1,0.5]];portConstraint=eastwest;whiteSpace=wrap;html=1;" parent="z6b44kUmdWg1kvKyMiqo-13" vertex="1">
                    <mxGeometry y="60" width="170" height="150" as="geometry"/>
                </mxCell>
                <mxCell id="z6b44kUmdWg1kvKyMiqo-18" value="variables" style="endArrow=block;endFill=1;html=1;edgeStyle=orthogonalEdgeStyle;align=left;verticalAlign=top;rounded=0;" parent="WIyWlLk6GJQsqaUBKTNV-1" source="z6b44kUmdWg1kvKyMiqo-0" target="z6b44kUmdWg1kvKyMiqo-20" edge="1">
                    <mxGeometry x="0.2" y="1" relative="1" as="geometry">
                        <mxPoint x="1180" y="888" as="sourcePoint"/>
                        <mxPoint x="950" y="1080" as="targetPoint"/>
                        <mxPoint as="offset"/>
                        <Array as="points">
                            <mxPoint x="1140" y="1080"/>
                        </Array>
                    </mxGeometry>
                </mxCell>
                <mxCell id="z6b44kUmdWg1kvKyMiqo-19" value="26" style="edgeLabel;resizable=0;html=1;align=left;verticalAlign=bottom;" parent="z6b44kUmdWg1kvKyMiqo-18" connectable="0" vertex="1">
                    <mxGeometry x="-1" relative="1" as="geometry">
                        <mxPoint x="-25" as="offset"/>
                    </mxGeometry>
                </mxCell>
                <mxCell id="z6b44kUmdWg1kvKyMiqo-20" value="Variables" style="swimlane;fontStyle=1;align=center;verticalAlign=top;childLayout=stackLayout;horizontal=1;startSize=26;horizontalStack=0;resizeParent=1;resizeParentMax=0;resizeLast=0;collapsible=1;marginBottom=0;whiteSpace=wrap;html=1;" parent="WIyWlLk6GJQsqaUBKTNV-1" vertex="1">
                    <mxGeometry x="820" y="1050" width="160" height="104" as="geometry"/>
                </mxCell>
                <mxCell id="z6b44kUmdWg1kvKyMiqo-21" value="+ &lt;i&gt;&lt;u&gt;ROWS:int = 6&lt;br&gt;+ COLS:int = 6&lt;br&gt;&lt;/u&gt;&lt;/i&gt;" style="text;strokeColor=none;fillColor=none;align=left;verticalAlign=top;spacingLeft=4;spacingRight=4;overflow=hidden;rotatable=0;points=[[0,0.5],[1,0.5]];portConstraint=eastwest;whiteSpace=wrap;html=1;" parent="z6b44kUmdWg1kvKyMiqo-20" vertex="1">
                    <mxGeometry y="26" width="160" height="44" as="geometry"/>
                </mxCell>
                <mxCell id="z6b44kUmdWg1kvKyMiqo-22" value="" style="line;strokeWidth=1;fillColor=none;align=left;verticalAlign=middle;spacingTop=-1;spacingLeft=3;spacingRight=3;rotatable=0;labelPosition=right;points=[];portConstraint=eastwest;strokeColor=inherit;" parent="z6b44kUmdWg1kvKyMiqo-20" vertex="1">
                    <mxGeometry y="70" width="160" height="8" as="geometry"/>
                </mxCell>
                <mxCell id="z6b44kUmdWg1kvKyMiqo-23" value="+ method(type): type" style="text;strokeColor=none;fillColor=none;align=left;verticalAlign=top;spacingLeft=4;spacingRight=4;overflow=hidden;rotatable=0;points=[[0,0.5],[1,0.5]];portConstraint=eastwest;whiteSpace=wrap;html=1;" parent="z6b44kUmdWg1kvKyMiqo-20" vertex="1">
                    <mxGeometry y="78" width="160" height="26" as="geometry"/>
                </mxCell>
            </root>
        </mxGraphModel>
    </diagram>
</mxfile>